HIERARCHY
ROOT Hips
{
 OFFSET 0.000000 0.000000 0.000000
 CHANNELS 6 Xposition Yposition Zposition Yrotation Xrotation Zrotation
 JOINT Chest
 {
  OFFSET 0.000000 9.585900 0.002600
  CHANNELS 3 Yrotation Xrotation Zrotation
  JOINT Chest2
  {
   OFFSET 0.000000 9.601200 -0.005300
   CHANNELS 3 Yrotation Xrotation Zrotation
   JOINT Chest3
   {
    OFFSET 0.000000 9.561800 0.000000
    CHANNELS 3 Yrotation Xrotation Zrotation
    JOINT Chest4
    {
     OFFSET 0.000000 9.552100 0.000000
     CHANNELS 3 Yrotation Xrotation Zrotation
     JOINT Neck
     {
      OFFSET 0.000000 14.453000 0.000000
      CHANNELS 3 Yrotation Xrotation Zrotation
      JOINT Head
      {
       OFFSET 0.000000 8.936500 -0.011300
       CHANNELS 3 Yrotation Xrotation Zrotation
       End Site
       {
        OFFSET 0.000000 17.073600 -0.006000
       }
      }
     }
     JOINT RightCollar
     {
      OFFSET -2.921100 9.558500 0.000000
      CHANNELS 3 Yrotation Xrotation Zrotation
      JOINT RightShoulder
      {
       OFFSET -13.519700 0.000000 0.000000
       CHANNELS 3 Yrotation Xrotation Zrotation
       JOINT RightElbow
       {
        OFFSET 0.000000 -29.696600 0.000000
        CHANNELS 3 Yrotation Xrotation Zrotation
        JOINT RightWrist
        {
         OFFSET 0.000000 -24.004700 0.000000
         CHANNELS 3 Yrotation Xrotation Zrotation
         End Site
         {
          OFFSET 0.000000 -17.728500 0.000000
         }
        }
       }
      }
     }
     JOINT LeftCollar
     {
      OFFSET 2.921100 9.558500 0.000000
      CHANNELS 3 Yrotation Xrotation Zrotation
      JOINT LeftShoulder
      {
       OFFSET 13.519700 0.000000 0.000000
       CHANNELS 3 Yrotation Xrotation Zrotation
       JOINT LeftElbow
       {
        OFFSET 0.000000 -29.696600 0.000000
        CHANNELS 3 Yrotation Xrotation Zrotation
        JOINT LeftWrist
        {
         OFFSET 0.000000 -24.004700 0.000000
         CHANNELS 3 Yrotation Xrotation Zrotation
         End Site
         {
          OFFSET 0.000000 -17.728500 0.000000
         }
        }
       }
      }
     }
    }
   }
  }
 }
 JOINT RightHip
 {
  OFFSET -7.771700 -0.012900 -0.001300
  CHANNELS 3 Yrotation Xrotation Zrotation
  JOINT RightKnee
  {
   OFFSET 0.000000 -40.869800 0.001200
   CHANNELS 3 Yrotation Xrotation Zrotation
   JOINT RightAnkle
   {
    OFFSET 0.000000 -39.717900 0.002100
    CHANNELS 3 Yrotation Xrotation Zrotation
    JOINT RightToe
    {
     OFFSET 0.000000 -4.965400 11.033500
     CHANNELS 3 Yrotation Xrotation Zrotation
     End Site
     {
      OFFSET 0.000000 -1.423100 5.872300
     }
    }
   }
  }
 }
 JOINT LeftHip
 {
  OFFSET 7.771700 -0.012900 -0.001300
  CHANNELS 3 Yrotation Xrotation Zrotation
  JOINT LeftKnee
  {
   OFFSET 0.000000 -40.869800 0.001200
   CHANNELS 3 Yrotation Xrotation Zrotation
   JOINT LeftAnkle
   {
    OFFSET 0.000000 -39.717900 0.002100
    CHANNELS 3 Yrotation Xrotation Zrotation
    JOINT LeftToe
    {
     OFFSET 0.000000 -4.965400 11.033500
     CHANNELS 3 Yrotation Xrotation Zrotation
     End Site
     {
      OFFSET 0.000000 -1.423100 5.872300
     }
    }
   }
  }
 }
}
MOTION
Frames: 15
Frame Time: 0.008333
-210.917063 57.538744 -69.576954 159.107819 -8.629061 0.761016 3.784523 6.669969 1.258641 0.160165 0.317369 0.008464 0.266392 0.529772 0.030703 3.259464 6.407708 0.467081 0.890758 17.992953 -0.882270 1.911484 -2.382249 -1.892280 1.309646 7.546512 0.575021 -5.306682 -7.101419 -8.247451 -119.979656 -83.564369 146.340468 -1.552196 6.761457 -31.288446 -3.699070 7.724676 -1.510857 17.592478 -3.977509 2.006800 87.106347 -76.532422 -118.908319 -0.249401 7.193068 16.068921 -11.970920 -63.529752 6.395870 -33.744146 72.000901 -35.163453 -4.536536 -6.991410 -0.612028 -0.280715 0.897577 -0.124046 -0.210731 -65.812220 16.468702 41.607074 66.161966 34.985024 -17.771577 -10.604800 3.491595 -0.283592 -1.046029 -0.104032
-210.918569 57.540044 -69.581011 159.169969 -8.639270 0.761782 3.730863 6.698479 1.240993 0.155228 0.306297 0.014104 0.273150 0.542188 0.023939 3.261863 6.398561 0.465717 0.888426 17.986178 -0.876977 1.915587 -2.384210 -1.895856 1.308883 7.535646 0.572243 -5.302504 -7.102470 -8.243038 -119.935739 -83.563146 146.287138 -1.530142 6.771579 -31.251459 -3.702097 7.718067 -1.500472 17.592228 -3.984368 2.011798 87.136592 -76.530178 -118.934613 -0.250109 7.192828 16.073123 -11.996542 -63.519891 6.356854 -33.721267 72.008737 -35.133914 -4.583953 -6.940953 -0.626829 -0.238336 0.840739 -0.106172 -0.244810 -65.802394 16.436707 41.585066 66.168578 34.967348 -17.791902 -10.680221 3.478977 -0.246721 -0.975936 -0.089056
-210.919258 57.541012 -69.582251 159.175831 -8.634730 0.760024 3.727279 6.700756 1.239965 0.154419 0.302009 0.014949 0.273891 0.544559 0.023290 3.269142 6.405645 0.459221 0.887899 17.978135 -0.874294 1.920784 -2.387381 -1.899992 1.313678 7.523020 0.562424 -5.305365 -7.101727 -8.233860 -119.962411 -83.576429 146.329093 -1.543423 6.764914 -31.265299 -3.706274 7.708853 -1.492095 17.591060 -3.987901 2.013945 87.167966 -76.531073 -118.957552 -0.248975 7.187276 16.073929 -11.994867 -63.523162 6.349020 -33.717345 72.011379 -35.124809 -4.582342 -6.943842 -0.619198 -0.242209 0.840663 -0.113678 -0.264885 -65.805222 16.446060 41.585322 66.170492 34.966251 -17.782637 -10.691348 3.474938 -0.219771 -0.971784 -0.087129
-210.918640 57.541800 -69.581809 159.124008 -8.622954 0.755217 3.780572 6.691012 1.251477 0.156015 0.308611 0.013452 0.273109 0.540380 0.024102 3.274109 6.411485 0.454889 0.911263 17.967095 -0.890706 1.914957 -2.397045 -1.896473 1.317066 7.512715 0.553533 -5.292387 -7.099553 -8.239857 -119.973110 -83.576707 146.334998 -1.548892 6.772765 -31.260475 -3.709086 7.701876 -1.487125 17.598947 -3.991344 2.015996 87.174466 -76.530699 -118.968804 -0.250943 7.180376 16.074598 -11.965238 -63.527871 6.374119 -33.713084 72.009061 -35.117032 -4.541584 -7.008954 -0.603946 -0.280213 0.904716 -0.133165 -0.245659 -65.814891 16.479087 41.597096 66.170361 34.978442 -17.753000 -10.637116 3.484106 -0.283674 -1.040534 -0.112546
-210.921816 57.542873 -69.584717 159.178873 -8.623883 0.761564 3.728491 6.699702 1.234377 0.162163 0.316588 0.006931 0.268523 0.532453 0.030406 3.284036 6.409485 0.453534 0.916552 17.955276 -0.895810 1.942921 -2.426554 -1.918925 1.306736 7.507081 0.551972 -5.274174 -7.098335 -8.252281 -119.966167 -83.593595 146.331558 -1.561790 6.764875 -31.259432 -3.716518 7.704255 -1.483059 17.616184 -3.999045 2.021819 87.168409 -76.524544 -118.979960 -0.253784 7.174398 16.076268 -11.986814 -63.530335 6.336547 -33.687129 72.016844 -35.086225 -4.596030 -6.953785 -0.621336 -0.234931 0.845483 -0.112254 -0.268873 -65.814013 16.444436 41.625004 66.163377 35.001561 -17.813453 -10.705242 3.483414 -0.248174 -0.983061 -0.105761
-210.923221 57.543556 -69.584807 159.178658 -8.612772 0.758838 3.739744 6.704666 1.224013 0.157280 0.308837 0.013332 0.269576 0.531435 0.031619 3.291238 6.408214 0.453107 0.923895 17.941571 -0.899474 1.942331 -2.435665 -1.914340 1.304839 7.509334 0.540726 -5.267162 -7.101056 -8.252616 -119.940656 -83.585072 146.294302 -1.529706 6.784146 -31.229262 -3.724509 7.703524 -1.480729 17.621726 -4.006508 2.028891 87.202485 -76.527070 -119.006733 -0.247128 7.176063 16.066351 -11.995093 -63.540954 6.345192 -33.689311 72.016167 -35.086083 -4.588273 -6.950440 -0.624019 -0.236924 0.841743 -0.110924 -0.275957 -65.824697 16.451796 41.622341 66.165901 34.996609 -17.811124 -10.710038 3.494167 -0.251657 -0.981116 -0.114731
-210.923742 57.544098 -69.584002 159.179429 -8.599620 0.747664 3.745812 6.700153 1.228600 0.157523 0.309052 0.013276 0.275746 0.540842 0.023778 3.300400 6.409020 0.451859 0.918859 17.917034 -0.888072 1.969283 -2.467195 -1.931068 1.295479 7.498853 0.541212 -5.260904 -7.106403 -8.256580 -119.946101 -83.607771 146.325404 -1.544495 6.767110 -31.249500 -3.740748 7.693712 -1.467958 17.631555 -4.016731 2.034112 87.238681 -76.529587 -119.038497 -0.239189 7.176268 16.061877 -12.020722 -63.551649 6.373517 -33.698618 72.012520 -35.093511 -4.578380 -6.943011 -0.624710 -0.245078 0.834807 -0.111380 -0.298008 -65.840135 16.479754 41.614819 66.171524 34.989089 -17.811991 -10.711403 3.498955 -0.268563 -0.987493 -0.119474
-210.925533 57.544699 -69.584201 159.181696 -8.590724 0.744280 3.746969 6.695839 1.228810 0.157614 0.309187 0.013230 0.277788 0.543721 0.022795 3.301702 6.411212 0.451093 0.922710 17.903361 -0.888708 2.001403 -2.504365 -1.949089 1.291129 7.491528 0.542267 -5.242212 -7.105999 -8.277176 -119.904791 -83.610565 146.279400 -1.551836 6.758542 -31.253377 -3.746937 7.692254 -1.466227 17.637989 -4.024977 2.036465 87.271332 -76.531852 -119.060923 -0.235649 7.177203 16.063127 -12.031237 -63.559386 6.382292 -33.712929 72.007183 -35.105617 -4.575583 -6.940835 -0.623909 -0.245100 0.832682 -0.112281 -0.306804 -65.849241 16.487300 41.614623 66.172715 34.987213 -17.804155 -10.712172 3.503487 -0.234776 -0.992412 -0.114581
-210.928206 57.545053 -69.582982 159.189016 -8.573170 0.741253 3.743878 6.682761 1.228125 0.157676 0.309346 0.013153 0.275977 0.541438 0.023790 3.302007 6.412204 0.450795 0.940784 17.890909 -0.895638 2.075607 -2.607815 -1.981585 1.291156 7.500332 0.531205 -5.217009 -7.103047 -8.309389 -119.851242 -83.589248 146.209815 -1.557506 6.750738 -31.256524 -3.746939 7.704834 -1.470312 17.641670 -4.040405 2.038376 87.305119 -76.531123 -119.086884 -0.235439 7.179952 16.091247 -12.053458 -63.576496 6.393437 -33.708137 72.005862 -35.099697 -4.567179 -6.936383 -0.622501 -0.250266 0.828705 -0.115277 -0.310787 -65.868912 16.486649 41.596916 66.175814 34.967081 -17.786699 -10.706307 3.513075 -0.238927 -0.996503 -0.118089
-210.931383 57.545350 -69.581377 159.200944 -8.553266 0.739253 3.739051 6.676072 1.219910 0.161832 0.325856 0.008279 0.272730 0.525903 0.028471 3.305773 6.415700 0.450940 0.969623 17.858128 -0.903240 2.090246 -2.658447 -1.979104 1.299353 7.506462 0.513959 -5.225676 -7.115307 -8.304126 -119.835823 -83.575221 146.189025 -1.536760 6.776886 -31.227986 -3.755509 7.689588 -1.461801 17.655044 -4.041420 2.044648 87.315215 -76.532570 -119.097250 -0.229500 7.178793 16.082369 -12.075285 -63.593639 6.400379 -33.690073 72.004259 -35.079681 -4.566851 -6.938841 -0.622266 -0.249205 0.831838 -0.116978 -0.295254 -65.895489 16.467058 41.607605 66.170418 34.978573 -17.802783 -10.691746 3.526044 -0.248568 -1.008271 -0.121415
-210.931204 57.545995 -69.580986 159.199251 -8.547547 0.723272 3.746920 6.685383 1.230877 0.160546 0.321126 0.010704 0.276596 0.539965 0.024031 3.306010 6.413440 0.449662 0.971187 17.832474 -0.897645 2.137525 -2.726316 -2.004538 1.303364 7.499291 0.508204 -5.226839 -7.117394 -8.310363 -119.844212 -83.561363 146.193642 -1.537226 6.777757 -31.225516 -3.756552 7.681707 -1.455467 17.662469 -4.050076 2.048296 87.337516 -76.537074 -119.109988 -0.224416 7.177263 16.073114 -12.106634 -63.592543 6.435042 -33.671933 72.001735 -35.059194 -4.562917 -6.936552 -0.622060 -0.253006 0.831154 -0.119371 -0.318195 -65.903691 16.496149 41.626791 66.166589 34.998524 -17.786806 -10.696383 3.540395 -0.225734 -1.007564 -0.122359
-210.932715 57.546672 -69.581211 159.195240 -8.541362 0.718882 3.756997 6.704265 1.229836 0.156401 0.299288 0.016109 0.277756 0.544087 0.023045 3.311713 6.427575 0.443332 0.987624 17.799987 -0.900414 2.169848 -2.790325 -2.020236 1.305778 7.494963 0.504699 -5.229115 -7.118045 -8.314896 -119.796598 -83.576392 146.165611 -1.547873 6.748495 -31.243250 -3.762381 7.679368 -1.448861 17.664266 -4.058213 2.056382 87.373267 -76.529877 -119.143541 -0.221373 7.179168 16.076510 -12.122310 -63.593794 6.452041 -33.648547 71.998008 -35.036786 -4.565758 -6.936866 -0.625738 -0.254019 0.832749 -0.117442 -0.313339 -65.912918 16.499707 41.637994 66.167180 35.011897 -17.791643 -10.697382 3.550067 -0.214834 -1.010461 -0.122082
-210.933811 57.547380 -69.581366 159.192833 -8.534734 0.712443 3.763695 6.715034 1.230175 0.157084 0.298724 0.018765 0.278557 0.545527 0.022596 3.317863 6.434682 0.438355 1.002858 17.764474 -0.904601 2.187842 -2.838730 -2.027076 1.305013 7.486010 0.501020 -5.232721 -7.120150 -8.312130 -119.808048 -83.579784 146.183303 -1.543709 6.785681 -31.235514 -3.769459 7.675078 -1.436638 17.666834 -4.051486 2.068355 87.458878 -76.518898 -119.209267 -0.220051 7.179534 16.081425 -12.137465 -63.595021 6.467166 -33.627190 71.995859 -35.014521 -4.561994 -6.938578 -0.624431 -0.267358 0.834596 -0.121126 -0.313388 -65.922803 16.509317 41.634676 66.171668 35.011892 -17.801316 -10.696976 3.558384 -0.206082 -1.014459 -0.120020
-210.933268 57.547784 -69.579060 159.138725 -8.515536 0.699938 3.820803 6.701293 1.246477 0.158639 0.306859 0.015737 0.281670 0.558542 0.016025 3.320847 6.428763 0.440054 1.019817 17.729154 -0.909570 2.180655 -2.845608 -2.014254 1.307267 7.481619 0.496804 -5.240273 -7.131584 -8.299086 -119.771531 -83.594709 146.154318 -1.545170 6.794292 -31.234509 -3.779777 7.697577 -1.431652 17.672841 -4.082004 2.069889 87.504192 -76.512218 -119.252601 -0.220465 7.178653 16.087562 -12.139020 -63.602783 6.518901 -33.582297 71.995303 -34.971271 -4.506062 -7.000929 -0.605255 -0.325928 0.899126 -0.148538 -0.295636 -65.943359 16.556090 41.626517 66.177243 35.005180 -17.774159 -10.633177 3.573800 -0.233281 -1.084319 -0.131651
-210.934659 57.548843 -69.582126 159.126199 -8.521043 0.704121 3.833847 6.712548 1.241222 0.159686 0.312896 0.012254 0.282804 0.557533 0.018084 3.321490 6.435350 0.435772 1.036067 17.695565 -0.914718 2.250918 -2.962581 -2.056239 1.312760 7.484632 0.491414 -5.236278 -7.124862 -8.301456 -119.803904 -83.592917 146.177305 -1.549456 6.796322 -31.232373 -3.783246 7.691222 -1.422817 17.673937 -4.080110 2.076682 87.540641 -76.506179 -119.285239 -0.222485 7.182001 16.092853 -12.120091 -63.594160 6.508418 -33.555568 71.995691 -34.943136 -4.514669 -7.005013 -0.608248 -0.324240 0.903551 -0.146477 -0.268284 -65.938550 16.548411 41.635502 66.188259 35.005970 -17.779139 -10.637931 3.594271 -0.248749 -1.091058 -0.135928
